<svg width="78" height="96" viewBox="0 0 78 96" fill="none" xmlns="http://www.w3.org/2000/svg">
<path d="M9.90419 0.000340091C4.44441 0.000340091 0 4.44793 0 9.90753V85.9918C0 91.4514 4.44441 95.899 9.90419 95.899H68.0835C73.5432 95.899 77.9877 91.4516 77.9877 85.9918V23.4293C77.9877 23.4293 78.1434 21.5974 77.3482 19.8147C76.6027 18.1437 75.3878 16.9807 75.3878 16.9807C75.3848 16.9766 75.3817 16.9725 75.3787 16.9684L60.9442 2.81008C60.9363 2.802 60.9283 2.794 60.9202 2.78609C60.9202 2.78609 59.6878 1.6126 57.861 0.828672C55.7099 -0.0943662 53.4928 0.00307254 53.4928 0.00307254L53.5258 0L9.90419 0.000340091Z" fill="#21AE59"/>
<path d="M9.90423 3.25476H53.5259C53.5369 3.25487 53.5479 3.25487 53.5589 3.25476C53.5589 3.25476 55.3033 3.27167 56.5791 3.81917C57.8071 4.34613 58.6779 5.1438 58.6837 5.14915C58.6837 5.14916 58.6897 5.15529 58.6897 5.15529L73.0882 19.2805C73.0882 19.2805 73.9556 20.1964 74.3761 21.1389C74.7154 21.8997 74.7363 23.2915 74.7363 23.2915C74.7348 23.3145 74.7338 23.3375 74.7333 23.3605V85.992C74.7333 89.7055 71.797 92.6448 68.0834 92.6448H9.90423C6.19068 92.6448 3.25439 89.7057 3.25439 85.992V9.90771C3.25439 6.19399 6.19068 3.25488 9.90423 3.25488V3.25476Z" fill="#F5F5F5"/>
<path d="M19.4728 57.0976C17.2337 54.8585 19.6562 51.7817 26.2307 48.5144L30.3674 46.4586L31.979 42.9325C32.8654 40.9931 34.1883 37.8287 34.9188 35.9005L36.247 32.3946L35.3317 29.8001C34.2063 26.6098 33.805 21.8157 34.519 20.0918C35.4862 17.7568 38.6543 17.9964 39.9086 20.4994C40.8881 22.4543 40.788 25.9944 39.6268 30.4591L38.6749 34.1194L39.5134 35.5428C39.9746 36.3257 41.3216 38.1846 42.5069 39.6737L44.7346 42.4447L47.5066 42.0829C56.3127 40.9338 59.3289 42.8868 59.3289 45.6871C59.3289 49.2213 52.4142 49.513 46.6076 45.4347C45.3011 44.517 44.4039 43.6055 44.4039 43.6055C44.4039 43.6055 40.7663 44.346 38.9753 44.8288C37.1266 45.3271 36.2042 45.6391 33.4962 46.5532C33.4962 46.5532 32.546 47.933 31.9269 48.9361C29.6234 52.6681 26.9338 55.7609 25.013 56.8866C22.8625 58.1469 20.6079 58.2328 19.4728 57.0976ZM22.9867 55.8423C24.2453 55.0644 26.7928 52.0514 28.5563 49.255L29.2703 48.1227L26.0193 49.7573C20.9982 52.2819 18.7012 54.6612 19.8957 56.1004C20.5667 56.9089 21.3693 56.8419 22.9867 55.8423ZM55.6014 46.6876C56.8324 45.8253 56.6537 44.0877 55.2619 43.3871C54.1788 42.8419 53.3058 42.7298 50.492 42.7714C48.7629 42.8893 45.9825 43.2377 45.5113 43.3437C45.5113 43.3437 47.0387 44.3994 47.7169 44.7874C48.6196 45.303 50.8134 46.2602 52.4151 46.7504C53.995 47.234 54.9089 47.183 55.6014 46.6876V46.6876ZM42.4874 41.2371C41.7424 40.4539 40.4755 38.8192 39.6722 37.6046C38.6215 36.2266 38.0946 35.2545 38.0946 35.2545C38.0946 35.2545 37.3267 37.7246 36.6967 39.211L34.7311 44.0694L34.1612 45.1714C34.1612 45.1714 37.1909 44.178 38.7324 43.7754C40.3651 43.3489 43.6786 42.6974 43.6786 42.6974L42.4874 41.2371ZM38.2613 24.2892C38.4513 22.6945 38.532 21.1021 38.0196 20.2991C36.5984 18.7454 34.883 20.041 35.1736 23.7348C35.2713 24.9774 35.58 27.1016 35.9927 28.4108L36.7431 30.7913L37.2712 28.9984C37.5617 28.0123 38.0072 25.8932 38.2613 24.2892Z" fill="#21AE59"/>
<path d="M23.281 67.4666H26.9163C28.0778 67.4666 29.0207 67.5777 29.7449 67.8C30.4691 68.0151 31.0785 68.499 31.5733 69.2519C32.068 69.9976 32.3154 70.8974 32.3154 71.9515C32.3154 72.9194 32.1146 73.7512 31.7131 74.4467C31.3116 75.1422 30.7702 75.6441 30.0891 75.9524C29.4151 76.2607 28.3754 76.4149 26.97 76.4149H25.7117V82.1474H23.281V67.4666ZM25.7117 69.3487V74.4682H26.9163C27.9918 74.4682 28.7339 74.2674 29.1426 73.8659C29.5585 73.4644 29.7664 72.8119 29.7664 71.9084C29.7664 71.2344 29.6302 70.6895 29.3577 70.2736C29.0852 69.8506 28.7841 69.5925 28.4543 69.4993C28.1316 69.3989 27.6189 69.3486 26.9163 69.3486L25.7117 69.3487Z" fill="#2C2C2C"/>
<path d="M34.1758 67.4668H37.4776C39.0766 67.4668 40.3529 67.75 41.3065 68.3164C42.2673 68.8829 42.9915 69.7254 43.479 70.8439C43.9738 71.9625 44.2211 73.2029 44.2211 74.5652C44.2211 75.9992 43.9989 77.2791 43.5543 78.4048C43.1169 79.5234 42.443 80.4268 41.5323 81.1151C40.6289 81.8035 39.3383 82.1477 37.6605 82.1477H34.1758V67.4668ZM36.6065 69.4135V80.201H37.6174C39.03 80.201 40.0553 79.7134 40.6934 78.7382C41.3316 77.7559 41.6507 76.4474 41.6507 74.8126C41.6507 71.2132 40.3063 69.4135 37.6174 69.4135H36.6065Z" fill="#2C2C2C"/>
<path d="M46.5552 67.4668H54.7076V69.4135H48.9859V73.8016H53.5676V75.7483H48.9859V82.1477H46.5552V67.4668Z" fill="#2C2C2C"/>
</svg>
