<svg id="ex2pq7m60la1" xmlns="http://www.w3.org/2000/svg" xmlns:xlink="http://www.w3.org/1999/xlink" viewBox="0 0 3000 2600" shape-rendering="geometricPrecision" text-rendering="geometricPrecision"><style><![CDATA[#ex2pq7m60la3_to {animation: ex2pq7m60la3_to__to 3000ms linear 1 normal forwards}@keyframes ex2pq7m60la3_to__to { 0% {transform: translate(1589.844008px,-314.527359px)} 33.333333% {transform: translate(1301.844435px,-303.306596px)} 60% {transform: translate(906.740270px,-280.483812px)} 83.333333% {transform: translate(642.123000px,-63.845727px)} 100% {transform: translate(526.704729px,190.602541px)} }#ex2pq7m60la3_tr {animation: ex2pq7m60la3_tr__tr 3000ms linear 1 normal forwards}@keyframes ex2pq7m60la3_tr__tr { 0% {transform: rotate(-43.458850deg)} 33.333333% {transform: rotate(19.443691deg)} 60% {transform: rotate(40.704603deg)} 83.333333% {transform: rotate(22.445712deg)} 100% {transform: rotate(3.302877deg)} }#ex2pq7m60la3_ts {animation: ex2pq7m60la3_ts__ts 3000ms linear 1 normal forwards}@keyframes ex2pq7m60la3_ts__ts { 0% {transform: scale(1,1)} 60% {transform: scale(0.596742,0.596742)} 100% {transform: scale(0.846900,0.846900)} }#ex2pq7m60la25_to {animation: ex2pq7m60la25_to__to 3000ms linear 1 normal forwards}@keyframes ex2pq7m60la25_to__to { 0% {transform: translate(474.451000px,253.551286px)} 33.333333% {transform: translate(574.948000px,150.194071px)} 93.333333% {transform: translate(538.342009px,194.877624px)} 96.666667% {transform: translate(501.595050px,267.569120px)} 100% {transform: translate(501.595050px,267.569120px)} }#ex2pq7m60la25_tr {animation: ex2pq7m60la25_tr__tr 3000ms linear 1 normal forwards}@keyframes ex2pq7m60la25_tr__tr { 0% {transform: rotate(0.309207deg)} 33.333333% {transform: rotate(22.080539deg)} 93.333333% {transform: rotate(12.738600deg)} 96.666667% {transform: rotate(4.372125deg)} 100% {transform: rotate(4.372125deg)} }]]></style><g id="ex2pq7m60la2" transform="matrix(1 0 0 1 954.50562100000002 1349.80592900000011)"><g id="ex2pq7m60la3_to" transform="translate(1589.844008,-314.527359)"><g id="ex2pq7m60la3_tr" transform="rotate(-43.458850)"><g id="ex2pq7m60la3_ts" transform="scale(1,1)"><g id="ex2pq7m60la3" transform="translate(-621.850555,-250)"><path id="ex2pq7m60la4" d="M798.700000,500L464.300000,500C456,500,449.300000,493.300000,449.300000,485L449.300000,15C449.300000,6.700000,456,0,464.300000,0L798.700000,0C807,0,813.700000,6.700000,813.700000,15L813.700000,485C813.800000,493.300000,807,500,798.700000,500Z" fill="rgb(53,151,104)" stroke="none" stroke-width="1"/><path id="ex2pq7m60la5" d="M798.400000,15.300000L464.600000,15.300000L464.600000,484.600000L798.400000,484.600000L798.400000,15.300000Z" fill="rgb(255,255,255)" stroke="none" stroke-width="1"/><path id="ex2pq7m60la6" d="M718.300000,174.600000L430,174.600000L430,58.900000L718.300000,58.900000L654.500000,116.800000L718.300000,174.600000Z" fill="rgb(38,214,129)" stroke="none" stroke-width="1"/><path id="ex2pq7m60la7" d="M430,185.831469L449.300000,188.900000L449.300000,185.831469L430,185.831469Z" fill="rgb(13,84,50)" stroke="none" stroke-width="1"/><path id="ex2pq7m60la8" d="M768,228.400000L495,228.400000C490.600000,228.400000,487,224.800000,487,220.400000L487,220.100000C487,215.700000,490.600000,212.100000,495,212.100000L768,212.100000C772.400000,212.100000,776,215.700000,776,220.100000L776,220.400000C776,224.800000,772.400000,228.400000,768,228.400000Z" fill="rgb(38,214,129)" stroke="none" stroke-width="1"/><path id="ex2pq7m60la9" d="M768,263.300000L495,263.300000C490.600000,263.300000,487,259.700000,487,255.300000L487,255C487,250.600000,490.600000,247,495,247L768,247C772.400000,247,776,250.600000,776,255L776,255.300000C776,259.700000,772.400000,263.300000,768,263.300000Z" fill="rgb(38,214,129)" stroke="none" stroke-width="1"/><path id="ex2pq7m60la10" d="M768,298.200000L495,298.200000C490.600000,298.200000,487,294.600000,487,290.200000L487,289.900000C487,285.500000,490.600000,281.900000,495,281.900000L768,281.900000C772.400000,281.900000,776,285.500000,776,289.900000L776,290.200000C776,294.700000,772.400000,298.200000,768,298.200000Z" fill="rgb(38,214,129)" stroke="none" stroke-width="1"/><path id="ex2pq7m60la11" d="M768,333.200000L495,333.200000C490.600000,333.200000,487,329.600000,487,325.200000L487,324.900000C487,320.500000,490.600000,316.900000,495,316.900000L768,316.900000C772.400000,316.900000,776,320.500000,776,324.900000L776,325.200000C776,329.600000,772.400000,333.200000,768,333.200000Z" fill="rgb(38,214,129)" stroke="none" stroke-width="1"/><path id="ex2pq7m60la12" d="M768,368.100000L495,368.100000C490.600000,368.100000,487,364.500000,487,360.100000L487,359.800000C487,355.400000,490.600000,351.800000,495,351.800000L768,351.800000C772.400000,351.800000,776,355.400000,776,359.800000L776,360.100000C776,364.500000,772.400000,368.100000,768,368.100000Z" fill="rgb(38,214,129)" stroke="none" stroke-width="1"/><path id="ex2pq7m60la13" d="M768,403L495,403C490.600000,403,487,399.400000,487,395L487,394.700000C487,390.300000,490.600000,386.700000,495,386.700000L768,386.700000C772.400000,386.700000,776,390.300000,776,394.700000L776,395C776,399.500000,772.400000,403,768,403Z" fill="rgb(38,214,129)" stroke="none" stroke-width="1"/><path id="ex2pq7m60la14" d="M702.800000,438L495,438C490.600000,438,487,434.400000,487,430L487,429.700000C487,425.300000,490.600000,421.700000,495,421.700000L702.800000,421.700000C707.200000,421.700000,710.800000,425.300000,710.800000,429.700000L710.800000,430C710.800000,434.400000,707.200000,438,702.800000,438Z" fill="rgb(38,214,129)" stroke="none" stroke-width="1"/><path id="ex2pq7m60la15" d="M528.789000,131.639000C528.789000,135.623000,528.145000,139.090000,526.855000,142.039000C525.566000,144.969000,523.779000,147.322000,521.494000,149.100000L528.584000,154.666000L522.988000,159.617000L513.906000,152.322000C512.871000,152.498000,511.797000,152.586000,510.684000,152.586000C507.148000,152.586000,503.994000,151.736000,501.221000,150.037000C498.447000,148.338000,496.299000,145.916000,494.775000,142.771000C493.252000,139.607000,492.480000,135.975000,492.461000,131.873000L492.461000,129.764000C492.461000,125.564000,493.213000,121.873000,494.717000,118.689000C496.240000,115.486000,498.379000,113.035000,501.133000,111.336000C503.906000,109.617000,507.070000,108.758000,510.625000,108.758000C514.180000,108.758000,517.334000,109.617000,520.088000,111.336000C522.861000,113.035000,525,115.486000,526.504000,118.689000C528.027000,121.873000,528.789000,125.555000,528.789000,129.734000L528.789000,131.639000ZM519.883000,129.705000C519.883000,125.232000,519.082000,121.834000,517.480000,119.510000C515.879000,117.186000,513.594000,116.023000,510.625000,116.023000C507.676000,116.023000,505.400000,117.176000,503.799000,119.480000C502.197000,121.766000,501.387000,125.125000,501.367000,129.559000L501.367000,131.639000C501.367000,135.994000,502.168000,139.373000,503.770000,141.775000C505.371000,144.178000,507.676000,145.379000,510.684000,145.379000C513.633000,145.379000,515.898000,144.227000,517.480000,141.922000C519.062000,139.598000,519.863000,136.219000,519.883000,131.785000L519.883000,129.705000ZM572.295000,140.809000C572.295000,139.148000,571.709000,137.879000,570.537000,137C569.365000,136.102000,567.256000,135.164000,564.209000,134.188000C561.162000,133.191000,558.750000,132.215000,556.973000,131.258000C552.129000,128.641000,549.707000,125.115000,549.707000,120.682000C549.707000,118.377000,550.352000,116.326000,551.641000,114.529000C552.949000,112.713000,554.814000,111.297000,557.236000,110.281000C559.678000,109.266000,562.412000,108.758000,565.439000,108.758000C568.486000,108.758000,571.201000,109.314000,573.584000,110.428000C575.967000,111.521000,577.812000,113.074000,579.121000,115.086000C580.449000,117.098000,581.113000,119.383000,581.113000,121.941000L572.324000,121.941000C572.324000,119.988000,571.709000,118.475000,570.479000,117.400000C569.248000,116.307000,567.520000,115.760000,565.293000,115.760000C563.145000,115.760000,561.475000,116.219000,560.283000,117.137000C559.092000,118.035000,558.496000,119.227000,558.496000,120.711000C558.496000,122.098000,559.189000,123.260000,560.576000,124.197000C561.982000,125.135000,564.043000,126.014000,566.758000,126.834000C571.758000,128.338000,575.400000,130.203000,577.686000,132.430000C579.971000,134.656000,581.113000,137.430000,581.113000,140.750000C581.113000,144.441000,579.717000,147.342000,576.924000,149.451000C574.131000,151.541000,570.371000,152.586000,565.645000,152.586000C562.363000,152.586000,559.375000,151.990000,556.680000,150.799000C553.984000,149.588000,551.924000,147.938000,550.498000,145.848000C549.092000,143.758000,548.389000,141.336000,548.389000,138.582000L557.207000,138.582000C557.207000,143.289000,560.020000,145.643000,565.645000,145.643000C567.734000,145.643000,569.365000,145.223000,570.537000,144.383000C571.709000,143.523000,572.295000,142.332000,572.295000,140.809000Z" fill="rgb(255,255,255)" stroke="none" stroke-width="1"/></g></g></g></g><path id="ex2pq7m60la16" d="M693.223000,466.015000L261.535000,466.015000C249.398000,466.015000,239.604000,456.221000,239.604000,444.085000C239.604000,431.949000,249.398000,422.155000,261.535000,422.155000L671.293000,422.155000C683.429000,422.155000,693.223000,431.949000,693.223000,444.085000L693.223000,466.015000Z" fill="rgb(230,230,230)" stroke="none" stroke-width="1"/><path id="ex2pq7m60la17" d="M223.848000,32.730000L28.284400,32.730000L28.284400,76.590800L223.848000,76.590800L223.848000,32.730000Z" fill="rgb(230,230,230)" stroke="none" stroke-width="1"/><path id="ex2pq7m60la18" d="M102.166000,83.936500L29.987700,83.936500C13.806100,83.936500,0.711670,70.842100,0.711670,54.660400C0.711670,38.478800,13.806100,25.384400,29.987700,25.384400L102.166000,25.384400C118.348000,25.384400,131.443000,38.478800,131.443000,54.660400C131.549000,70.842100,118.455000,83.936500,102.166000,83.936500Z" fill="rgb(38,214,129)" stroke="none" stroke-width="1"/><path id="ex2pq7m60la19" d="M220.951000,34.153800L177.555000,40.526800L254.232000,562.647000L297.628000,556.274000L220.951000,34.153800Z" fill="rgb(230,230,230)" stroke="none" stroke-width="1"/><path id="ex2pq7m60la20" d="M693.223000,562.680000L255.679000,562.680000L255.679000,518.819000L649.256000,518.819000C673.528000,518.819000,693.223000,538.407000,693.223000,562.680000Z" fill="rgb(230,230,230)" stroke="none" stroke-width="1"/><path id="ex2pq7m60la21" d="M598.262000,622.616000C622.486000,622.616000,642.123000,602.978000,642.123000,578.755000C642.123000,554.531000,622.486000,534.894000,598.262000,534.894000C574.039000,534.894000,554.401000,554.531000,554.401000,578.755000C554.401000,602.978000,574.039000,622.616000,598.262000,622.616000Z" fill="rgb(51,51,51)" stroke="none" stroke-width="1"/><path id="ex2pq7m60la22" d="M598.262000,602.069000C611.138000,602.069000,621.577000,591.631000,621.577000,578.755000C621.577000,565.879000,611.138000,555.440000,598.262000,555.440000C585.386000,555.440000,574.948000,565.879000,574.948000,578.755000C574.948000,591.631000,585.386000,602.069000,598.262000,602.069000Z" fill="rgb(204,204,204)" stroke="none" stroke-width="1"/><path id="ex2pq7m60la23" d="M346.488000,622.616000C370.712000,622.616000,390.349000,602.978000,390.349000,578.755000C390.349000,554.531000,370.712000,534.894000,346.488000,534.894000C322.265000,534.894000,302.628000,554.531000,302.628000,578.755000C302.628000,602.978000,322.265000,622.616000,346.488000,622.616000Z" fill="rgb(51,51,51)" stroke="none" stroke-width="1"/><path id="ex2pq7m60la24" d="M346.488000,602.069000C359.365000,602.069000,369.803000,591.631000,369.803000,578.755000C369.803000,565.879000,359.365000,555.440000,346.488000,555.440000C333.612000,555.440000,323.174000,565.879000,323.174000,578.755000C323.174000,591.631000,333.612000,602.069000,346.488000,602.069000Z" fill="rgb(204,204,204)" stroke="none" stroke-width="1"/><g id="ex2pq7m60la25_to" transform="translate(474.451000,253.551286)"><g id="ex2pq7m60la25_tr" transform="rotate(0.309207)"><g id="ex2pq7m60la25" transform="translate(-471.789993,-254.908760)"><path id="ex2pq7m60la26" d="M710.044000,160.161000L233.536000,160.161000C225.977000,160.161000,219.803000,153.986000,219.803000,146.428000L219.803000,101.396000C219.803000,93.837100,225.977000,87.662500,233.536000,87.662500L710.044000,87.662500C717.602000,87.662500,723.777000,93.837100,723.777000,101.396000L723.777000,146.428000C723.777000,153.986000,717.602000,160.161000,710.044000,160.161000Z" fill="rgb(38,214,129)" stroke="none" stroke-width="1"/><path id="ex2pq7m60la27" d="M678.319000,160.161000L668.631000,230.742000L607.631000,230.742000L607.631000,160.161000L581.335000,160.161000L581.335000,230.742000L487.971000,230.742000L487.971000,160.161000L461.783000,160.161000L461.783000,230.742000L368.419000,230.742000L368.419000,160.161000L342.230000,160.161000L342.230000,230.742000L274.948000,230.742000L265.261000,160.161000L235.985000,160.161000L269.732000,401.395000C271.968000,413.425000,282.613000,422.155000,295.069000,422.155000L648.404000,422.155000C660.860000,422.155000,671.612000,413.425000,673.741000,401.395000L707.489000,160.161000L678.319000,160.161000ZM342.230000,394.688000L317.106000,394.688000C306.141000,394.688000,296.772000,386.810000,294.856000,376.058000L289.746000,338.585000L342.230000,338.585000L342.230000,394.688000ZM342.230000,312.396000L286.126000,312.396000L278.568000,256.931000L342.230000,256.931000L342.230000,312.396000ZM461.783000,394.688000L368.419000,394.688000L368.419000,338.691000L461.783000,338.691000L461.783000,394.688000ZM461.783000,312.396000L368.419000,312.396000L368.419000,256.931000L461.783000,256.931000L461.783000,312.396000ZM581.335000,394.688000L487.971000,394.688000L487.971000,338.691000L581.335000,338.691000L581.335000,394.688000ZM581.335000,312.396000L487.971000,312.396000L487.971000,256.931000L581.335000,256.931000L581.335000,312.396000ZM648.724000,376.058000C646.807000,386.810000,637.439000,394.688000,626.474000,394.688000L607.524000,394.688000L607.524000,338.691000L653.834000,338.691000L648.724000,376.058000ZM657.453000,312.396000L607.631000,312.396000L607.631000,256.931000L665.118000,256.931000L657.453000,312.396000Z" fill="rgb(38,214,129)" stroke="none" stroke-width="1"/></g></g></g></g></svg>